<mxfile host="app.diagrams.net" agent="Mozilla/5.0 (X11; Linux x86_64; rv:138.0) Gecko/20100101 Firefox/138.0" version="26.2.14">
  <diagram name="Page-1" id="z3UKJneu9GesWsOIrPzE">
    <mxGraphModel dx="1394" dy="708" grid="1" gridSize="10" guides="1" tooltips="1" connect="1" arrows="1" fold="1" page="1" pageScale="1" pageWidth="850" pageHeight="1100" math="0" shadow="0">
      <root>
        <mxCell id="0" />
        <mxCell id="1" parent="0" />
        <mxCell id="rbRUM7E0vrzFzV01E6mU-1" value="" style="pointerEvents=1;verticalLabelPosition=bottom;shadow=0;dashed=0;align=center;html=1;verticalAlign=top;shape=mxgraph.electrical.resistors.resistor_1;rotation=-90;" vertex="1" parent="1">
          <mxGeometry x="160" y="110" width="100" height="20" as="geometry" />
        </mxCell>
        <mxCell id="rbRUM7E0vrzFzV01E6mU-3" value="" style="pointerEvents=1;fillColor=strokeColor;verticalLabelPosition=bottom;shadow=0;dashed=0;align=center;html=1;verticalAlign=top;shape=mxgraph.electrical.diodes.diode;rotation=90;" vertex="1" parent="1">
          <mxGeometry x="160" y="190" width="100" height="60" as="geometry" />
        </mxCell>
        <mxCell id="rbRUM7E0vrzFzV01E6mU-4" value="" style="pointerEvents=1;fillColor=strokeColor;verticalLabelPosition=bottom;shadow=0;dashed=0;align=center;html=1;verticalAlign=top;shape=mxgraph.electrical.diodes.diode;rotation=90;" vertex="1" parent="1">
          <mxGeometry x="160" y="290" width="100" height="60" as="geometry" />
        </mxCell>
        <mxCell id="rbRUM7E0vrzFzV01E6mU-5" value="" style="verticalLabelPosition=bottom;shadow=0;dashed=0;align=center;fillColor=strokeColor;html=1;verticalAlign=top;strokeWidth=1;shape=mxgraph.electrical.miscellaneous.monocell_battery;rotation=-90;" vertex="1" parent="1">
          <mxGeometry x="60" y="190" width="100" height="60" as="geometry" />
        </mxCell>
        <mxCell id="rbRUM7E0vrzFzV01E6mU-6" value="" style="endArrow=none;html=1;rounded=0;exitX=1;exitY=0.5;exitDx=0;exitDy=0;exitPerimeter=0;entryX=1;entryY=0.5;entryDx=0;entryDy=0;entryPerimeter=0;" edge="1" parent="1" source="rbRUM7E0vrzFzV01E6mU-1" target="rbRUM7E0vrzFzV01E6mU-5">
          <mxGeometry width="50" height="50" relative="1" as="geometry">
            <mxPoint x="390" y="280" as="sourcePoint" />
            <mxPoint x="110" y="70" as="targetPoint" />
            <Array as="points">
              <mxPoint x="110" y="70" />
            </Array>
          </mxGeometry>
        </mxCell>
        <mxCell id="rbRUM7E0vrzFzV01E6mU-7" value="" style="endArrow=none;html=1;rounded=0;entryX=1;entryY=0.5;entryDx=0;entryDy=0;entryPerimeter=0;exitX=0;exitY=0.5;exitDx=0;exitDy=0;exitPerimeter=0;" edge="1" parent="1" source="rbRUM7E0vrzFzV01E6mU-5" target="rbRUM7E0vrzFzV01E6mU-4">
          <mxGeometry width="50" height="50" relative="1" as="geometry">
            <mxPoint x="110" y="370" as="sourcePoint" />
            <mxPoint x="440" y="230" as="targetPoint" />
            <Array as="points">
              <mxPoint x="110" y="370" />
            </Array>
          </mxGeometry>
        </mxCell>
        <mxCell id="rbRUM7E0vrzFzV01E6mU-8" value="" style="rounded=0;whiteSpace=wrap;html=1;fillColor=none;strokeColor=none;" vertex="1" parent="1">
          <mxGeometry x="70" y="60" width="180" height="320" as="geometry" />
        </mxCell>
      </root>
    </mxGraphModel>
  </diagram>
</mxfile>
